<svg xmlns="http://www.w3.org/2000/svg" xmlns:xlink="http://www.w3.org/1999/xlink" width="500" zoomAndPan="magnify" viewBox="0 0 375 374.999991" height="500" preserveAspectRatio="xMidYMid meet" version="1.0"><defs><g/><clipPath id="95ad144253"><path d="M 5.808594 5.808594 L 369.558594 5.808594 L 369.558594 369.558594 L 5.808594 369.558594 Z M 5.808594 5.808594 " clip-rule="nonzero"/></clipPath><clipPath id="07e88699da"><path d="M 107 155 L 256 155 L 256 195.75 L 107 195.75 Z M 107 155 " clip-rule="nonzero"/></clipPath><clipPath id="828a2f322d"><path d="M 95.238281 83 L 182 83 L 182 183 L 95.238281 183 Z M 95.238281 83 " clip-rule="nonzero"/></clipPath><clipPath id="fb4a32c0b5"><path d="M 198 84 L 267.738281 84 L 267.738281 183 L 198 183 Z M 198 84 " clip-rule="nonzero"/></clipPath><clipPath id="d7442b75e6"><path d="M 147 37.5 L 216 37.5 L 216 149 L 147 149 Z M 147 37.5 " clip-rule="nonzero"/></clipPath></defs><g clip-path="url(#95ad144253)"><path fill="#e8e7d0" d="M 369.183594 187.496094 C 369.183594 190.46875 369.109375 193.441406 368.964844 196.410156 C 368.816406 199.378906 368.597656 202.34375 368.308594 205.304688 C 368.015625 208.261719 367.652344 211.210938 367.214844 214.152344 C 366.78125 217.09375 366.269531 220.023438 365.691406 222.941406 C 365.109375 225.855469 364.460938 228.757812 363.738281 231.640625 C 363.015625 234.527344 362.222656 237.390625 361.359375 240.234375 C 360.496094 243.082031 359.5625 245.902344 358.5625 248.703125 C 357.558594 251.503906 356.488281 254.277344 355.351562 257.023438 C 354.214844 259.769531 353.011719 262.488281 351.738281 265.175781 C 350.46875 267.863281 349.128906 270.519531 347.730469 273.140625 C 346.328125 275.765625 344.863281 278.351562 343.332031 280.902344 C 341.804688 283.453125 340.214844 285.960938 338.5625 288.433594 C 336.910156 290.90625 335.199219 293.335938 333.425781 295.726562 C 331.65625 298.113281 329.828125 300.457031 327.941406 302.757812 C 326.054688 305.054688 324.113281 307.304688 322.117188 309.507812 C 320.121094 311.710938 318.070312 313.863281 315.96875 315.96875 C 313.863281 318.070312 311.710938 320.121094 309.507812 322.117188 C 307.304688 324.113281 305.054688 326.054688 302.757812 327.941406 C 300.457031 329.828125 298.113281 331.65625 295.726562 333.425781 C 293.335938 335.199219 290.90625 336.910156 288.433594 338.5625 C 285.960938 340.214844 283.453125 341.804688 280.902344 343.332031 C 278.351562 344.863281 275.765625 346.328125 273.140625 347.730469 C 270.519531 349.128906 267.863281 350.46875 265.175781 351.738281 C 262.488281 353.011719 259.769531 354.214844 257.023438 355.351562 C 254.277344 356.488281 251.503906 357.558594 248.703125 358.5625 C 245.902344 359.5625 243.082031 360.496094 240.234375 361.359375 C 237.390625 362.222656 234.527344 363.015625 231.640625 363.738281 C 228.757812 364.460938 225.855469 365.109375 222.941406 365.691406 C 220.023438 366.269531 217.09375 366.78125 214.152344 367.214844 C 211.210938 367.652344 208.261719 368.015625 205.304688 368.308594 C 202.34375 368.597656 199.378906 368.816406 196.410156 368.964844 C 193.441406 369.109375 190.46875 369.183594 187.496094 369.183594 C 184.523438 369.183594 181.550781 369.109375 178.578125 368.964844 C 175.609375 368.816406 172.644531 368.597656 169.6875 368.308594 C 166.726562 368.015625 163.777344 367.652344 160.835938 367.214844 C 157.894531 366.78125 154.964844 366.269531 152.050781 365.691406 C 149.132812 365.109375 146.234375 364.460938 143.347656 363.738281 C 140.464844 363.015625 137.597656 362.222656 134.753906 361.359375 C 131.910156 360.496094 129.085938 359.5625 126.285156 358.5625 C 123.488281 357.558594 120.714844 356.488281 117.964844 355.351562 C 115.21875 354.214844 112.5 353.011719 109.8125 351.738281 C 107.125 350.46875 104.46875 349.128906 101.847656 347.730469 C 99.226562 346.328125 96.640625 344.863281 94.089844 343.332031 C 91.539062 341.804688 89.027344 340.214844 86.554688 338.5625 C 84.082031 336.910156 81.652344 335.199219 79.265625 333.425781 C 76.875 331.65625 74.53125 329.828125 72.234375 327.941406 C 69.933594 326.054688 67.683594 324.113281 65.480469 322.117188 C 63.277344 320.121094 61.125 318.070312 59.023438 315.96875 C 56.921875 313.863281 54.871094 311.710938 52.875 309.507812 C 50.875 307.304688 48.933594 305.054688 47.046875 302.757812 C 45.164062 300.457031 43.332031 298.113281 41.5625 295.726562 C 39.789062 293.335938 38.078125 290.90625 36.425781 288.433594 C 34.777344 285.960938 33.183594 283.453125 31.65625 280.902344 C 30.128906 278.351562 28.664062 275.765625 27.261719 273.140625 C 25.859375 270.519531 24.523438 267.863281 23.25 265.175781 C 21.980469 262.488281 20.777344 259.769531 19.636719 257.023438 C 18.5 254.277344 17.429688 251.503906 16.429688 248.703125 C 15.425781 245.902344 14.492188 243.082031 13.632812 240.234375 C 12.769531 237.390625 11.976562 234.527344 11.253906 231.640625 C 10.53125 228.757812 9.878906 225.855469 9.296875 222.941406 C 8.71875 220.023438 8.210938 217.09375 7.773438 214.152344 C 7.335938 211.210938 6.972656 208.261719 6.683594 205.304688 C 6.390625 202.34375 6.171875 199.378906 6.027344 196.410156 C 5.878906 193.441406 5.808594 190.46875 5.808594 187.496094 C 5.808594 184.523438 5.878906 181.550781 6.027344 178.578125 C 6.171875 175.609375 6.390625 172.644531 6.683594 169.6875 C 6.972656 166.726562 7.335938 163.777344 7.773438 160.835938 C 8.210938 157.894531 8.71875 154.964844 9.296875 152.050781 C 9.878906 149.132812 10.53125 146.234375 11.253906 143.347656 C 11.976562 140.464844 12.769531 137.597656 13.632812 134.753906 C 14.492188 131.910156 15.425781 129.085938 16.429688 126.285156 C 17.429688 123.488281 18.5 120.714844 19.636719 117.964844 C 20.777344 115.21875 21.980469 112.5 23.25 109.8125 C 24.523438 107.125 25.859375 104.46875 27.261719 101.847656 C 28.664062 99.226562 30.128906 96.640625 31.65625 94.089844 C 33.183594 91.539062 34.777344 89.027344 36.425781 86.554688 C 38.078125 84.082031 39.789062 81.652344 41.5625 79.265625 C 43.332031 76.875 45.164062 74.53125 47.046875 72.234375 C 48.933594 69.933594 50.875 67.683594 52.875 65.480469 C 54.871094 63.277344 56.921875 61.125 59.023438 59.023438 C 61.125 56.921875 63.277344 54.871094 65.480469 52.875 C 67.683594 50.875 69.933594 48.933594 72.234375 47.046875 C 74.53125 45.164062 76.875 43.332031 79.265625 41.5625 C 81.652344 39.789062 84.082031 38.078125 86.554688 36.425781 C 89.027344 34.777344 91.539062 33.183594 94.089844 31.65625 C 96.640625 30.128906 99.226562 28.664062 101.847656 27.261719 C 104.46875 25.859375 107.125 24.523438 109.8125 23.25 C 112.5 21.980469 115.21875 20.777344 117.964844 19.636719 C 120.714844 18.5 123.488281 17.429688 126.285156 16.429688 C 129.085938 15.425781 131.910156 14.492188 134.753906 13.632812 C 137.597656 12.769531 140.464844 11.976562 143.347656 11.253906 C 146.234375 10.53125 149.132812 9.878906 152.050781 9.296875 C 154.964844 8.71875 157.894531 8.210938 160.835938 7.773438 C 163.777344 7.335938 166.726562 6.972656 169.6875 6.683594 C 172.644531 6.390625 175.609375 6.171875 178.578125 6.027344 C 181.550781 5.878906 184.523438 5.808594 187.496094 5.808594 C 190.46875 5.808594 193.441406 5.878906 196.410156 6.027344 C 199.378906 6.171875 202.34375 6.390625 205.304688 6.683594 C 208.261719 6.972656 211.210938 7.335938 214.152344 7.773438 C 217.09375 8.210938 220.023438 8.71875 222.941406 9.296875 C 225.855469 9.878906 228.757812 10.53125 231.640625 11.253906 C 234.527344 11.976562 237.390625 12.769531 240.234375 13.632812 C 243.082031 14.492188 245.902344 15.425781 248.703125 16.429688 C 251.503906 17.429688 254.277344 18.5 257.023438 19.636719 C 259.769531 20.777344 262.488281 21.980469 265.175781 23.25 C 267.863281 24.523438 270.519531 25.859375 273.140625 27.261719 C 275.765625 28.664062 278.351562 30.128906 280.902344 31.65625 C 283.453125 33.183594 285.960938 34.777344 288.433594 36.425781 C 290.90625 38.078125 293.335938 39.789062 295.726562 41.5625 C 298.113281 43.332031 300.457031 45.164062 302.757812 47.046875 C 305.054688 48.933594 307.304688 50.875 309.507812 52.875 C 311.710938 54.871094 313.863281 56.921875 315.96875 59.023438 C 318.070312 61.125 320.121094 63.277344 322.117188 65.480469 C 324.113281 67.683594 326.054688 69.933594 327.941406 72.234375 C 329.828125 74.53125 331.65625 76.875 333.425781 79.265625 C 335.199219 81.652344 336.910156 84.082031 338.5625 86.554688 C 340.214844 89.027344 341.804688 91.539062 343.332031 94.089844 C 344.863281 96.640625 346.328125 99.226562 347.730469 101.847656 C 349.128906 104.46875 350.46875 107.125 351.738281 109.8125 C 353.011719 112.5 354.214844 115.21875 355.351562 117.964844 C 356.488281 120.714844 357.558594 123.488281 358.5625 126.285156 C 359.5625 129.085938 360.496094 131.910156 361.359375 134.753906 C 362.222656 137.597656 363.015625 140.464844 363.738281 143.347656 C 364.460938 146.234375 365.109375 149.132812 365.691406 152.050781 C 366.269531 154.964844 366.78125 157.894531 367.214844 160.835938 C 367.652344 163.777344 368.015625 166.726562 368.308594 169.6875 C 368.597656 172.644531 368.816406 175.609375 368.964844 178.578125 C 369.109375 181.550781 369.183594 184.523438 369.183594 187.496094 Z M 369.183594 187.496094 " fill-opacity="1" fill-rule="nonzero"/></g><path fill="#283ef0" d="M 187.53125 366.167969 C 88.976562 366.167969 8.796875 285.984375 8.796875 187.429688 C 8.796875 88.875 88.976562 8.703125 187.53125 8.703125 C 286.085938 8.703125 366.269531 88.875 366.269531 187.429688 C 366.269531 285.984375 286.085938 366.167969 187.53125 366.167969 Z M 187.53125 -0.0429688 C 84.160156 -0.0429688 0.0585938 84.058594 0.0585938 187.429688 C 0.0585938 290.804688 84.160156 374.90625 187.53125 374.90625 C 290.90625 374.90625 375.003906 290.804688 375.003906 187.429688 C 375.003906 84.058594 290.90625 -0.0429688 187.53125 -0.0429688 " fill-opacity="1" fill-rule="nonzero"/><path fill="#283ef0" d="M 187.53125 6.207031 C 87.605469 6.207031 6.3125 87.507812 6.3125 187.429688 C 6.3125 287.359375 87.605469 368.660156 187.53125 368.660156 C 287.460938 368.660156 368.761719 287.359375 368.761719 187.429688 C 368.761719 87.507812 287.460938 6.207031 187.53125 6.207031 Z M 187.53125 372.417969 C 85.535156 372.417969 2.550781 289.429688 2.550781 187.429688 C 2.550781 85.429688 85.535156 2.449219 187.53125 2.449219 C 289.53125 2.449219 372.515625 85.429688 372.515625 187.429688 C 372.515625 289.429688 289.53125 372.417969 187.53125 372.417969 " fill-opacity="1" fill-rule="nonzero"/><g clip-path="url(#07e88699da)"><path fill="#ff914d" d="M 175.960938 155.210938 L 180.871094 155.210938 L 180.871094 160.121094 L 175.960938 160.121094 Z M 107.828125 195.960938 C 156.210938 186.425781 206.847656 186.425781 255.226562 195.960938 C 207.550781 177.851562 155.503906 177.851562 107.828125 195.960938 Z M 182.1875 155.210938 L 187.09375 155.210938 L 187.09375 160.121094 L 182.1875 160.121094 Z M 187.09375 161.4375 L 187.09375 166.34375 L 182.1875 166.34375 L 182.1875 161.4375 Z M 180.871094 166.34375 L 175.960938 166.34375 L 175.960938 161.4375 L 180.871094 161.4375 Z M 180.871094 166.34375 " fill-opacity="1" fill-rule="evenodd"/></g><g clip-path="url(#828a2f322d)"><path fill="#ff914d" d="M 181.363281 136.1875 L 131.808594 83.839844 L 125.585938 98.140625 L 101.136719 91.234375 L 107.710938 124.328125 L 95.96875 128.390625 L 131.621094 158.171875 C 138.195312 162.726562 138.925781 170.691406 133.875 182.105469 C 142.117188 179.707031 149.984375 177.875 157.453125 176.632812 L 157.453125 153.710938 L 181.339844 136.234375 Z M 181.363281 136.1875 " fill-opacity="1" fill-rule="evenodd"/></g><g clip-path="url(#fb4a32c0b5)"><path fill="#ffd200" d="M 198.742188 148.894531 L 205.578125 153.898438 L 205.578125 176.820312 C 213.046875 178.066406 220.914062 179.894531 229.15625 182.292969 C 224.085938 170.902344 224.835938 162.914062 231.414062 158.359375 L 267.066406 128.578125 L 255.320312 124.515625 L 261.898438 91.425781 L 237.449219 98.351562 L 231.226562 84.050781 L 205.953125 110.449219 L 200.972656 119.75 L 198.71875 148.847656 Z M 198.742188 148.894531 " fill-opacity="1" fill-rule="evenodd"/></g><g clip-path="url(#d7442b75e6)"><path fill="#ffbd59" d="M 215.746094 58.472656 L 199.261719 70.570312 L 181.667969 37.476562 L 164.078125 70.570312 L 147.589844 58.472656 L 157.476562 110.964844 L 181.339844 136.164062 L 198.695312 148.871094 C 204.355469 118.738281 210.039062 88.605469 215.699219 58.449219 Z M 215.746094 58.472656 " fill-opacity="1" fill-rule="evenodd"/></g><path fill="#ffd200" d="M 198.742188 148.894531 L 212.269531 103.894531 L 205.976562 110.472656 Z M 198.742188 148.894531 " fill-opacity="0.231" fill-rule="evenodd"/><path fill="#ffd200" d="M 181.363281 136.1875 L 155.789062 101.804688 L 157.5 110.964844 Z M 181.363281 136.1875 " fill-opacity="0.231" fill-rule="evenodd"/><g fill="#004aad" fill-opacity="1"><g transform="translate(28.914381, 245.102151)"><g><path d="M 18.953125 -14.546875 C 18.867188 -14.515625 18.828125 -14.460938 18.828125 -14.390625 C 18.828125 -14.328125 18.867188 -14.269531 18.953125 -14.21875 C 21.441406 -12.976562 22.6875 -10.832031 22.6875 -7.78125 C 22.6875 -5.21875 21.8125 -3.28125 20.0625 -1.96875 C 18.3125 -0.65625 16.019531 0 13.1875 0 L 3.09375 0 C 2.644531 0 2.421875 -0.222656 2.421875 -0.671875 L 2.421875 -27.140625 C 2.421875 -27.585938 2.644531 -27.8125 3.09375 -27.8125 L 12.875 -27.8125 C 19.15625 -27.8125 22.296875 -25.269531 22.296875 -20.1875 C 22.296875 -17.507812 21.179688 -15.628906 18.953125 -14.546875 Z M 8.265625 -23 C 8.109375 -23 8.03125 -22.921875 8.03125 -22.765625 L 8.03125 -16.65625 C 8.03125 -16.488281 8.109375 -16.40625 8.265625 -16.40625 L 12.875 -16.40625 C 14.113281 -16.40625 15.078125 -16.695312 15.765625 -17.28125 C 16.460938 -17.863281 16.8125 -18.660156 16.8125 -19.671875 C 16.8125 -20.703125 16.460938 -21.515625 15.765625 -22.109375 C 15.078125 -22.703125 14.113281 -23 12.875 -23 Z M 13.1875 -4.84375 C 14.40625 -4.84375 15.359375 -5.15625 16.046875 -5.78125 C 16.734375 -6.40625 17.078125 -7.257812 17.078125 -8.34375 C 17.078125 -9.425781 16.734375 -10.28125 16.046875 -10.90625 C 15.359375 -11.53125 14.394531 -11.84375 13.15625 -11.84375 L 8.265625 -11.84375 C 8.109375 -11.84375 8.03125 -11.765625 8.03125 -11.609375 L 8.03125 -5.09375 C 8.03125 -4.925781 8.109375 -4.84375 8.265625 -4.84375 Z M 13.1875 -4.84375 "/></g></g></g><g fill="#004aad" fill-opacity="1"><g transform="translate(61.850166, 245.102151)"><g><path d="M 21.734375 -23.6875 C 21.734375 -23.226562 21.507812 -23 21.0625 -23 L 8.265625 -23 C 8.109375 -23 8.03125 -22.921875 8.03125 -22.765625 L 8.03125 -16.6875 C 8.03125 -16.53125 8.109375 -16.453125 8.265625 -16.453125 L 16.5625 -16.453125 C 17.019531 -16.453125 17.25 -16.226562 17.25 -15.78125 L 17.25 -12.3125 C 17.25 -11.863281 17.019531 -11.640625 16.5625 -11.640625 L 8.265625 -11.640625 C 8.109375 -11.640625 8.03125 -11.5625 8.03125 -11.40625 L 8.03125 -5.046875 C 8.03125 -4.890625 8.109375 -4.8125 8.265625 -4.8125 L 21.0625 -4.8125 C 21.507812 -4.8125 21.734375 -4.582031 21.734375 -4.125 L 21.734375 -0.671875 C 21.734375 -0.222656 21.507812 0 21.0625 0 L 3.09375 0 C 2.644531 0 2.421875 -0.222656 2.421875 -0.671875 L 2.421875 -27.140625 C 2.421875 -27.585938 2.644531 -27.8125 3.09375 -27.8125 L 21.0625 -27.8125 C 21.507812 -27.8125 21.734375 -27.585938 21.734375 -27.140625 Z M 21.734375 -23.6875 "/></g></g></g><g fill="#004aad" fill-opacity="1"><g transform="translate(93.355795, 245.102151)"><g><path d="M 11.84375 0.3125 C 9.769531 0.3125 7.953125 -0.03125 6.390625 -0.71875 C 4.828125 -1.40625 3.625 -2.367188 2.78125 -3.609375 C 1.9375 -4.859375 1.515625 -6.316406 1.515625 -7.984375 L 1.515625 -8.65625 C 1.515625 -9.113281 1.738281 -9.34375 2.1875 -9.34375 L 6.359375 -9.34375 C 6.804688 -9.34375 7.03125 -9.171875 7.03125 -8.828125 L 7.03125 -8.265625 C 7.03125 -7.203125 7.515625 -6.304688 8.484375 -5.578125 C 9.453125 -4.847656 10.71875 -4.484375 12.28125 -4.484375 C 13.6875 -4.484375 14.722656 -4.78125 15.390625 -5.375 C 16.066406 -5.976562 16.40625 -6.71875 16.40625 -7.59375 C 16.40625 -8.226562 16.191406 -8.765625 15.765625 -9.203125 C 15.347656 -9.640625 14.78125 -10.019531 14.0625 -10.34375 C 13.351562 -10.675781 12.203125 -11.132812 10.609375 -11.71875 C 8.804688 -12.332031 7.296875 -12.957031 6.078125 -13.59375 C 4.859375 -14.226562 3.820312 -15.09375 2.96875 -16.1875 C 2.125 -17.289062 1.703125 -18.648438 1.703125 -20.265625 C 1.703125 -21.859375 2.113281 -23.25 2.9375 -24.4375 C 3.757812 -25.625 4.90625 -26.535156 6.375 -27.171875 C 7.84375 -27.804688 9.519531 -28.125 11.40625 -28.125 C 13.414062 -28.125 15.210938 -27.765625 16.796875 -27.046875 C 18.390625 -26.335938 19.628906 -25.335938 20.515625 -24.046875 C 21.410156 -22.765625 21.859375 -21.28125 21.859375 -19.59375 L 21.859375 -19.1875 C 21.859375 -18.738281 21.628906 -18.515625 21.171875 -18.515625 L 17 -18.515625 C 16.550781 -18.515625 16.328125 -18.644531 16.328125 -18.90625 L 16.328125 -19.3125 C 16.328125 -20.425781 15.867188 -21.375 14.953125 -22.15625 C 14.046875 -22.9375 12.796875 -23.328125 11.203125 -23.328125 C 9.929688 -23.328125 8.953125 -23.0625 8.265625 -22.53125 C 7.578125 -22 7.234375 -21.269531 7.234375 -20.34375 C 7.234375 -19.675781 7.429688 -19.117188 7.828125 -18.671875 C 8.222656 -18.222656 8.820312 -17.8125 9.625 -17.4375 C 10.4375 -17.070312 11.691406 -16.597656 13.390625 -16.015625 C 15.242188 -15.328125 16.710938 -14.722656 17.796875 -14.203125 C 18.890625 -13.691406 19.863281 -12.90625 20.71875 -11.84375 C 21.582031 -10.78125 22.015625 -9.414062 22.015625 -7.75 C 22.015625 -6.132812 21.597656 -4.71875 20.765625 -3.5 C 19.929688 -2.28125 18.75 -1.335938 17.21875 -0.671875 C 15.695312 -0.015625 13.90625 0.3125 11.84375 0.3125 Z M 11.84375 0.3125 "/></g></g></g><g fill="#004aad" fill-opacity="1"><g transform="translate(125.179237, 245.102151)"><g><path d="M 21.421875 -27.8125 C 21.867188 -27.8125 22.09375 -27.585938 22.09375 -27.140625 L 22.09375 -23.640625 C 22.09375 -23.191406 21.867188 -22.96875 21.421875 -22.96875 L 14.546875 -22.96875 C 14.378906 -22.96875 14.296875 -22.890625 14.296875 -22.734375 L 14.296875 -0.671875 C 14.296875 -0.222656 14.070312 0 13.625 0 L 9.375 0 C 8.925781 0 8.703125 -0.222656 8.703125 -0.671875 L 8.703125 -22.734375 C 8.703125 -22.890625 8.625 -22.96875 8.46875 -22.96875 L 1.78125 -22.96875 C 1.332031 -22.96875 1.109375 -23.191406 1.109375 -23.640625 L 1.109375 -27.140625 C 1.109375 -27.585938 1.332031 -27.8125 1.78125 -27.8125 Z M 21.421875 -27.8125 "/></g></g></g><g fill="#004aad" fill-opacity="1"><g transform="translate(156.724588, 245.102151)"><g/></g></g><g fill="#004aad" fill-opacity="1"><g transform="translate(172.97522, 245.102151)"><g><path d="M 12.203125 0.3125 C 10.128906 0.3125 8.3125 -0.0859375 6.75 -0.890625 C 5.1875 -1.703125 3.984375 -2.835938 3.140625 -4.296875 C 2.296875 -5.753906 1.875 -7.4375 1.875 -9.34375 L 1.875 -18.515625 C 1.875 -20.421875 2.296875 -22.101562 3.140625 -23.5625 C 3.984375 -25.019531 5.1875 -26.144531 6.75 -26.9375 C 8.3125 -27.726562 10.128906 -28.125 12.203125 -28.125 C 14.242188 -28.125 16.035156 -27.742188 17.578125 -26.984375 C 19.128906 -26.234375 20.332031 -25.160156 21.1875 -23.765625 C 22.050781 -22.378906 22.484375 -20.773438 22.484375 -18.953125 C 22.484375 -18.710938 22.273438 -18.566406 21.859375 -18.515625 L 17.609375 -18.234375 L 17.4375 -18.234375 C 17.070312 -18.234375 16.890625 -18.300781 16.890625 -18.4375 L 16.890625 -18.671875 C 16.890625 -20.078125 16.457031 -21.203125 15.59375 -22.046875 C 14.726562 -22.898438 13.597656 -23.328125 12.203125 -23.328125 C 10.765625 -23.328125 9.613281 -22.898438 8.75 -22.046875 C 7.894531 -21.203125 7.46875 -20.078125 7.46875 -18.671875 L 7.46875 -9.09375 C 7.46875 -7.71875 7.894531 -6.601562 8.75 -5.75 C 9.613281 -4.90625 10.765625 -4.484375 12.203125 -4.484375 C 13.597656 -4.484375 14.726562 -4.90625 15.59375 -5.75 C 16.457031 -6.601562 16.890625 -7.71875 16.890625 -9.09375 C 16.890625 -9.226562 16.945312 -9.34375 17.0625 -9.4375 C 17.1875 -9.53125 17.351562 -9.5625 17.5625 -9.53125 L 21.8125 -9.34375 C 22.257812 -9.289062 22.484375 -9.222656 22.484375 -9.140625 L 22.484375 -8.9375 C 22.484375 -7.113281 22.050781 -5.5 21.1875 -4.09375 C 20.332031 -2.6875 19.128906 -1.597656 17.578125 -0.828125 C 16.035156 -0.0664062 14.242188 0.3125 12.203125 0.3125 Z M 12.203125 0.3125 "/></g></g></g><g fill="#004aad" fill-opacity="1"><g transform="translate(205.43429, 245.102151)"><g><path d="M 17.203125 -27.140625 C 17.203125 -27.585938 17.425781 -27.8125 17.875 -27.8125 L 22.125 -27.8125 C 22.582031 -27.8125 22.8125 -27.585938 22.8125 -27.140625 L 22.8125 -0.671875 C 22.8125 -0.222656 22.582031 0 22.125 0 L 17.875 0 C 17.425781 0 17.203125 -0.222656 17.203125 -0.671875 L 17.203125 -11.40625 C 17.203125 -11.5625 17.125 -11.640625 16.96875 -11.640625 L 8.265625 -11.640625 C 8.109375 -11.640625 8.03125 -11.5625 8.03125 -11.40625 L 8.03125 -0.671875 C 8.03125 -0.222656 7.800781 0 7.34375 0 L 3.09375 0 C 2.644531 0 2.421875 -0.222656 2.421875 -0.671875 L 2.421875 -27.140625 C 2.421875 -27.585938 2.644531 -27.8125 3.09375 -27.8125 L 7.34375 -27.8125 C 7.800781 -27.8125 8.03125 -27.585938 8.03125 -27.140625 L 8.03125 -16.6875 C 8.03125 -16.53125 8.109375 -16.453125 8.265625 -16.453125 L 16.96875 -16.453125 C 17.125 -16.453125 17.203125 -16.53125 17.203125 -16.6875 Z M 17.203125 -27.140625 "/></g></g></g><g fill="#004aad" fill-opacity="1"><g transform="translate(238.687889, 245.102151)"><g><path d="M 12.3125 0.4375 C 10.25 0.4375 8.425781 0.015625 6.84375 -0.828125 C 5.269531 -1.679688 4.046875 -2.867188 3.171875 -4.390625 C 2.304688 -5.910156 1.875 -7.664062 1.875 -9.65625 L 1.875 -18.15625 C 1.875 -20.113281 2.304688 -21.847656 3.171875 -23.359375 C 4.046875 -24.867188 5.269531 -26.039062 6.84375 -26.875 C 8.425781 -27.707031 10.25 -28.125 12.3125 -28.125 C 14.40625 -28.125 16.238281 -27.707031 17.8125 -26.875 C 19.394531 -26.039062 20.625 -24.867188 21.5 -23.359375 C 22.375 -21.847656 22.8125 -20.113281 22.8125 -18.15625 L 22.8125 -9.65625 C 22.8125 -7.664062 22.375 -5.898438 21.5 -4.359375 C 20.625 -2.828125 19.394531 -1.644531 17.8125 -0.8125 C 16.238281 0.0195312 14.40625 0.4375 12.3125 0.4375 Z M 12.3125 -4.375 C 13.769531 -4.375 14.945312 -4.835938 15.84375 -5.765625 C 16.75 -6.691406 17.203125 -7.921875 17.203125 -9.453125 L 17.203125 -18.203125 C 17.203125 -19.734375 16.757812 -20.96875 15.875 -21.90625 C 14.988281 -22.851562 13.800781 -23.328125 12.3125 -23.328125 C 10.851562 -23.328125 9.679688 -22.851562 8.796875 -21.90625 C 7.910156 -20.96875 7.46875 -19.734375 7.46875 -18.203125 L 7.46875 -9.453125 C 7.46875 -7.921875 7.910156 -6.691406 8.796875 -5.765625 C 9.679688 -4.835938 10.851562 -4.375 12.3125 -4.375 Z M 12.3125 -4.375 "/></g></g></g><g fill="#004aad" fill-opacity="1"><g transform="translate(271.663397, 245.102151)"><g><path d="M 3.09375 0 C 2.644531 0 2.421875 -0.222656 2.421875 -0.671875 L 2.421875 -27.140625 C 2.421875 -27.585938 2.644531 -27.8125 3.09375 -27.8125 L 7.34375 -27.8125 C 7.800781 -27.8125 8.03125 -27.585938 8.03125 -27.140625 L 8.03125 -0.671875 C 8.03125 -0.222656 7.800781 0 7.34375 0 Z M 3.09375 0 "/></g></g></g><g fill="#004aad" fill-opacity="1"><g transform="translate(290.416806, 245.102151)"><g><path d="M 12.203125 0.3125 C 10.128906 0.3125 8.3125 -0.0859375 6.75 -0.890625 C 5.1875 -1.703125 3.984375 -2.835938 3.140625 -4.296875 C 2.296875 -5.753906 1.875 -7.4375 1.875 -9.34375 L 1.875 -18.515625 C 1.875 -20.421875 2.296875 -22.101562 3.140625 -23.5625 C 3.984375 -25.019531 5.1875 -26.144531 6.75 -26.9375 C 8.3125 -27.726562 10.128906 -28.125 12.203125 -28.125 C 14.242188 -28.125 16.035156 -27.742188 17.578125 -26.984375 C 19.128906 -26.234375 20.332031 -25.160156 21.1875 -23.765625 C 22.050781 -22.378906 22.484375 -20.773438 22.484375 -18.953125 C 22.484375 -18.710938 22.273438 -18.566406 21.859375 -18.515625 L 17.609375 -18.234375 L 17.4375 -18.234375 C 17.070312 -18.234375 16.890625 -18.300781 16.890625 -18.4375 L 16.890625 -18.671875 C 16.890625 -20.078125 16.457031 -21.203125 15.59375 -22.046875 C 14.726562 -22.898438 13.597656 -23.328125 12.203125 -23.328125 C 10.765625 -23.328125 9.613281 -22.898438 8.75 -22.046875 C 7.894531 -21.203125 7.46875 -20.078125 7.46875 -18.671875 L 7.46875 -9.09375 C 7.46875 -7.71875 7.894531 -6.601562 8.75 -5.75 C 9.613281 -4.90625 10.765625 -4.484375 12.203125 -4.484375 C 13.597656 -4.484375 14.726562 -4.90625 15.59375 -5.75 C 16.457031 -6.601562 16.890625 -7.71875 16.890625 -9.09375 C 16.890625 -9.226562 16.945312 -9.34375 17.0625 -9.4375 C 17.1875 -9.53125 17.351562 -9.5625 17.5625 -9.53125 L 21.8125 -9.34375 C 22.257812 -9.289062 22.484375 -9.222656 22.484375 -9.140625 L 22.484375 -8.9375 C 22.484375 -7.113281 22.050781 -5.5 21.1875 -4.09375 C 20.332031 -2.6875 19.128906 -1.597656 17.578125 -0.828125 C 16.035156 -0.0664062 14.242188 0.3125 12.203125 0.3125 Z M 12.203125 0.3125 "/></g></g></g><g fill="#004aad" fill-opacity="1"><g transform="translate(322.875865, 245.102151)"><g><path d="M 21.734375 -23.6875 C 21.734375 -23.226562 21.507812 -23 21.0625 -23 L 8.265625 -23 C 8.109375 -23 8.03125 -22.921875 8.03125 -22.765625 L 8.03125 -16.6875 C 8.03125 -16.53125 8.109375 -16.453125 8.265625 -16.453125 L 16.5625 -16.453125 C 17.019531 -16.453125 17.25 -16.226562 17.25 -15.78125 L 17.25 -12.3125 C 17.25 -11.863281 17.019531 -11.640625 16.5625 -11.640625 L 8.265625 -11.640625 C 8.109375 -11.640625 8.03125 -11.5625 8.03125 -11.40625 L 8.03125 -5.046875 C 8.03125 -4.890625 8.109375 -4.8125 8.265625 -4.8125 L 21.0625 -4.8125 C 21.507812 -4.8125 21.734375 -4.582031 21.734375 -4.125 L 21.734375 -0.671875 C 21.734375 -0.222656 21.507812 0 21.0625 0 L 3.09375 0 C 2.644531 0 2.421875 -0.222656 2.421875 -0.671875 L 2.421875 -27.140625 C 2.421875 -27.585938 2.644531 -27.8125 3.09375 -27.8125 L 21.0625 -27.8125 C 21.507812 -27.8125 21.734375 -27.585938 21.734375 -27.140625 Z M 21.734375 -23.6875 "/></g></g></g><g fill="#004aad" fill-opacity="1"><g transform="translate(108.507536, 278.529649)"><g><path d="M 13.734375 0.328125 C 12.960938 0.328125 12.296875 0.09375 11.734375 -0.375 C 11.179688 -0.84375 10.90625 -1.515625 10.90625 -2.390625 C 10.90625 -3.265625 11.28125 -5.238281 12.03125 -8.3125 C 11.5 -8.4375 10.859375 -8.5 10.109375 -8.5 C 9.359375 -8.5 8.5625 -8.390625 7.71875 -8.171875 C 6.882812 -4.546875 6.445312 -2.023438 6.40625 -0.609375 C 5.625 -0.148438 4.023438 0.078125 1.609375 0.078125 L 1.09375 0.078125 C 1.09375 -0.941406 1.601562 -3.515625 2.625 -7.640625 C 3.644531 -11.765625 4.15625 -14.460938 4.15625 -15.734375 C 4.15625 -16.035156 4.0625 -16.367188 3.875 -16.734375 C 3.6875 -17.109375 3.492188 -17.398438 3.296875 -17.609375 L 3 -17.9375 L 3.0625 -18.46875 C 4.257812 -18.84375 6.257812 -19.03125 9.0625 -19.03125 C 9.34375 -18.644531 9.484375 -18.039062 9.484375 -17.21875 C 9.484375 -16.394531 9.082031 -14.203125 8.28125 -10.640625 L 12.578125 -10.640625 C 13.234375 -13.453125 13.5625 -15.679688 13.5625 -17.328125 C 13.5625 -17.640625 13.554688 -17.894531 13.546875 -18.09375 C 15.296875 -18.71875 16.984375 -19.03125 18.609375 -19.03125 C 18.734375 -18.90625 18.796875 -18.453125 18.796875 -17.671875 C 18.796875 -16.898438 18.351562 -14.570312 17.46875 -10.6875 C 16.582031 -6.8125 16.140625 -4.320312 16.140625 -3.21875 C 16.140625 -2.84375 16.253906 -2.65625 16.484375 -2.65625 C 16.929688 -2.65625 17.414062 -2.769531 17.9375 -3 L 18.53125 -1.5 C 17.882812 -0.945312 17.117188 -0.503906 16.234375 -0.171875 C 15.347656 0.160156 14.515625 0.328125 13.734375 0.328125 Z M 13.734375 0.328125 "/></g></g></g><g fill="#004aad" fill-opacity="1"><g transform="translate(127.597985, 278.529649)"><g><path d="M 5.046875 0.328125 C 3.648438 0.328125 2.546875 -0.113281 1.734375 -1 C 0.929688 -1.882812 0.53125 -3.132812 0.53125 -4.75 C 0.53125 -6.707031 1.109375 -8.367188 2.265625 -9.734375 C 3.429688 -11.109375 4.960938 -11.796875 6.859375 -11.796875 L 8.078125 -11.6875 C 8.503906 -11.8125 8.90625 -11.875 9.28125 -11.875 C 10.175781 -11.875 10.8125 -11.570312 11.1875 -10.96875 C 11.570312 -10.363281 11.789062 -9.492188 11.84375 -8.359375 C 12.601562 -8.398438 13.320312 -8.519531 14 -8.71875 L 14.375 -8.828125 C 14.5 -8.703125 14.585938 -8.320312 14.640625 -7.6875 L 14.671875 -7.40625 C 13.859375 -6.988281 12.875 -6.664062 11.71875 -6.4375 C 11.320312 -4.539062 10.539062 -2.9375 9.375 -1.625 C 8.21875 -0.320312 6.773438 0.328125 5.046875 0.328125 Z M 5.578125 -4.859375 C 5.578125 -3.191406 6 -2.359375 6.84375 -2.359375 C 7.425781 -2.359375 8.023438 -2.734375 8.640625 -3.484375 C 9.265625 -4.234375 9.691406 -5.144531 9.921875 -6.21875 C 8.097656 -6.21875 7.1875 -7.09375 7.1875 -8.84375 C 7.1875 -9.144531 7.210938 -9.457031 7.265625 -9.78125 C 7.085938 -9.78125 6.953125 -9.753906 6.859375 -9.703125 C 6.554688 -9.378906 6.265625 -8.726562 5.984375 -7.75 C 5.710938 -6.78125 5.578125 -5.816406 5.578125 -4.859375 Z M 5.578125 -4.859375 "/></g></g></g><g fill="#004aad" fill-opacity="1"><g transform="translate(139.556328, 278.529649)"><g><path d="M 1.609375 0.15625 L 0.9375 0.15625 C 0.9375 -1.113281 1.179688 -2.882812 1.671875 -5.15625 C 2.160156 -7.4375 2.40625 -8.703125 2.40625 -8.953125 C 2.40625 -9.203125 2.328125 -9.476562 2.171875 -9.78125 C 2.015625 -10.09375 1.851562 -10.328125 1.6875 -10.484375 L 1.453125 -10.71875 L 1.5 -11.125 C 2.539062 -11.46875 4.375 -11.640625 7 -11.640625 C 7.195312 -11.222656 7.332031 -10.785156 7.40625 -10.328125 C 8.957031 -11.335938 10.269531 -11.84375 11.34375 -11.84375 C 11.914062 -11.84375 12.398438 -11.691406 12.796875 -11.390625 C 13.203125 -11.085938 13.484375 -10.6875 13.640625 -10.1875 C 15.128906 -11.289062 16.488281 -11.84375 17.71875 -11.84375 C 18.519531 -11.84375 19.148438 -11.597656 19.609375 -11.109375 C 20.066406 -10.617188 20.296875 -10.03125 20.296875 -9.34375 C 20.296875 -8.65625 20.097656 -7.539062 19.703125 -6 C 19.316406 -4.46875 19.125 -3.484375 19.125 -3.046875 C 19.125 -2.609375 19.191406 -2.390625 19.328125 -2.390625 L 20.71875 -2.734375 L 21.203125 -1.390625 C 20.671875 -0.960938 19.9375 -0.566406 19 -0.203125 C 18.0625 0.148438 17.21875 0.328125 16.46875 0.328125 C 14.925781 0.328125 14.15625 -0.453125 14.15625 -2.015625 C 14.15625 -2.671875 14.34375 -3.796875 14.71875 -5.390625 C 15.09375 -6.984375 15.28125 -7.953125 15.28125 -8.296875 C 15.28125 -8.648438 15.144531 -8.828125 14.875 -8.828125 C 14.5 -8.828125 14.097656 -8.671875 13.671875 -8.359375 C 13.617188 -8.097656 13.476562 -7.457031 13.25 -6.4375 C 12.75 -4.144531 12.5 -2.113281 12.5 -0.34375 C 11.675781 -0.0390625 10.070312 0.109375 7.6875 0.109375 C 7.632812 -0.0859375 7.609375 -0.550781 7.609375 -1.28125 C 7.609375 -2.019531 7.804688 -3.316406 8.203125 -5.171875 C 8.597656 -7.035156 8.796875 -8.109375 8.796875 -8.390625 C 8.796875 -8.679688 8.671875 -8.828125 8.421875 -8.828125 C 8.117188 -8.828125 7.722656 -8.679688 7.234375 -8.390625 C 7.179688 -8.085938 7.015625 -7.3125 6.734375 -6.0625 C 6.117188 -3.4375 5.8125 -1.523438 5.8125 -0.328125 C 4.976562 -0.00390625 3.578125 0.15625 1.609375 0.15625 Z M 1.609375 0.15625 "/></g></g></g><g fill="#004aad" fill-opacity="1"><g transform="translate(160.73815, 278.529649)"><g><path d="M 0.53125 -4.859375 C 0.53125 -7.066406 1.203125 -8.785156 2.546875 -10.015625 C 3.898438 -11.253906 5.570312 -11.875 7.5625 -11.875 C 8.9375 -11.875 10.039062 -11.570312 10.875 -10.96875 C 11.707031 -10.375 12.125 -9.578125 12.125 -8.578125 C 12.125 -7.847656 11.898438 -7.195312 11.453125 -6.625 C 11.003906 -6.050781 10.457031 -5.613281 9.8125 -5.3125 C 8.457031 -4.695312 7.28125 -4.328125 6.28125 -4.203125 L 5.609375 -4.125 C 5.804688 -2.945312 6.394531 -2.359375 7.375 -2.359375 C 7.800781 -2.359375 8.273438 -2.453125 8.796875 -2.640625 C 9.316406 -2.828125 9.726562 -3.019531 10.03125 -3.21875 L 10.484375 -3.484375 L 11.34375 -2.328125 C 11.34375 -2.328125 11.242188 -2.226562 11.046875 -2.03125 C 10.941406 -1.925781 10.6875 -1.71875 10.28125 -1.40625 C 9.875 -1.09375 9.453125 -0.816406 9.015625 -0.578125 C 8.578125 -0.347656 8.019531 -0.140625 7.34375 0.046875 C 6.664062 0.234375 5.988281 0.328125 5.3125 0.328125 C 3.789062 0.328125 2.613281 -0.113281 1.78125 -1 C 0.945312 -1.882812 0.53125 -3.171875 0.53125 -4.859375 Z M 5.5 -5.90625 C 6.019531 -5.96875 6.535156 -6.390625 7.046875 -7.171875 C 7.566406 -7.953125 7.828125 -8.601562 7.828125 -9.125 C 7.828125 -9.65625 7.675781 -9.921875 7.375 -9.921875 C 6.925781 -9.921875 6.515625 -9.570312 6.140625 -8.875 C 5.765625 -8.175781 5.550781 -7.1875 5.5 -5.90625 Z M 5.5 -5.90625 "/></g></g></g><g fill="#004aad" fill-opacity="1"><g transform="translate(172.428369, 278.529649)"><g/></g></g><g fill="#004aad" fill-opacity="1"><g transform="translate(177.790853, 278.529649)"><g><path d="M 12.6875 -4.90625 C 12.6875 -3.425781 11.972656 -2.179688 10.546875 -1.171875 C 9.128906 -0.171875 7.484375 0.328125 5.609375 0.328125 C 4.140625 0.328125 2.898438 0.015625 1.890625 -0.609375 C 0.878906 -1.242188 0.375 -1.84375 0.375 -2.40625 C 0.65625 -3.101562 1.195312 -3.851562 2 -4.65625 C 2.8125 -5.46875 3.554688 -5.890625 4.234375 -5.921875 C 4.679688 -5.722656 5.097656 -5.234375 5.484375 -4.453125 C 5.867188 -3.679688 6.175781 -2.785156 6.40625 -1.765625 C 7.375 -1.804688 7.859375 -2.351562 7.859375 -3.40625 C 7.859375 -4.101562 7.59375 -4.957031 7.0625 -5.96875 C 6.539062 -6.976562 5.960938 -7.921875 5.328125 -8.796875 C 4.703125 -9.671875 4.125 -10.644531 3.59375 -11.71875 C 3.070312 -12.789062 2.8125 -13.726562 2.8125 -14.53125 C 2.8125 -15.851562 3.421875 -16.929688 4.640625 -17.765625 C 5.859375 -18.609375 7.210938 -19.03125 8.703125 -19.03125 C 10.191406 -19.03125 11.351562 -18.707031 12.1875 -18.0625 C 13.019531 -17.425781 13.4375 -16.6875 13.4375 -15.84375 C 13.4375 -15.144531 13.289062 -14.585938 13 -14.171875 C 12.71875 -13.753906 12.488281 -13.429688 12.3125 -13.203125 C 12.144531 -12.984375 11.921875 -12.75 11.640625 -12.5 C 11.097656 -12.03125 10.6875 -11.6875 10.40625 -11.46875 L 10 -11.1875 C 11.050781 -9.875 11.847656 -8.351562 12.390625 -6.625 C 12.585938 -6 12.6875 -5.425781 12.6875 -4.90625 Z M 11.28125 -15.65625 C 11.28125 -16.5 10.742188 -16.921875 9.671875 -16.921875 C 9.046875 -16.921875 8.539062 -16.785156 8.15625 -16.515625 C 7.78125 -16.242188 7.59375 -15.90625 7.59375 -15.5 C 7.59375 -15.101562 7.753906 -14.617188 8.078125 -14.046875 C 8.410156 -13.472656 8.675781 -13.070312 8.875 -12.84375 C 9.300781 -13.0625 9.804688 -13.453125 10.390625 -14.015625 C 10.984375 -14.585938 11.28125 -15.132812 11.28125 -15.65625 Z M 11.28125 -15.65625 "/></g></g></g><g fill="#004aad" fill-opacity="1"><g transform="translate(191.411565, 278.529649)"><g><path d="M 0.53125 -4.859375 C 0.53125 -7.066406 1.203125 -8.785156 2.546875 -10.015625 C 3.898438 -11.253906 5.570312 -11.875 7.5625 -11.875 C 8.9375 -11.875 10.039062 -11.570312 10.875 -10.96875 C 11.707031 -10.375 12.125 -9.578125 12.125 -8.578125 C 12.125 -7.847656 11.898438 -7.195312 11.453125 -6.625 C 11.003906 -6.050781 10.457031 -5.613281 9.8125 -5.3125 C 8.457031 -4.695312 7.28125 -4.328125 6.28125 -4.203125 L 5.609375 -4.125 C 5.804688 -2.945312 6.394531 -2.359375 7.375 -2.359375 C 7.800781 -2.359375 8.273438 -2.453125 8.796875 -2.640625 C 9.316406 -2.828125 9.726562 -3.019531 10.03125 -3.21875 L 10.484375 -3.484375 L 11.34375 -2.328125 C 11.34375 -2.328125 11.242188 -2.226562 11.046875 -2.03125 C 10.941406 -1.925781 10.6875 -1.71875 10.28125 -1.40625 C 9.875 -1.09375 9.453125 -0.816406 9.015625 -0.578125 C 8.578125 -0.347656 8.019531 -0.140625 7.34375 0.046875 C 6.664062 0.234375 5.988281 0.328125 5.3125 0.328125 C 3.789062 0.328125 2.613281 -0.113281 1.78125 -1 C 0.945312 -1.882812 0.53125 -3.171875 0.53125 -4.859375 Z M 5.5 -5.90625 C 6.019531 -5.96875 6.535156 -6.390625 7.046875 -7.171875 C 7.566406 -7.953125 7.828125 -8.601562 7.828125 -9.125 C 7.828125 -9.65625 7.675781 -9.921875 7.375 -9.921875 C 6.925781 -9.921875 6.515625 -9.570312 6.140625 -8.875 C 5.765625 -8.175781 5.550781 -7.1875 5.5 -5.90625 Z M 5.5 -5.90625 "/></g></g></g><g fill="#004aad" fill-opacity="1"><g transform="translate(203.101784, 278.529649)"><g><path d="M 1.3125 0.15625 L 1.09375 0.15625 C 1.039062 -0.09375 1.015625 -0.476562 1.015625 -1 C 1.015625 -1.53125 1.234375 -2.898438 1.671875 -5.109375 C 2.109375 -7.316406 2.328125 -8.566406 2.328125 -8.859375 C 2.328125 -9.148438 2.242188 -9.453125 2.078125 -9.765625 C 1.921875 -10.085938 1.765625 -10.328125 1.609375 -10.484375 L 1.375 -10.71875 L 1.421875 -11.125 C 2.492188 -11.46875 4.269531 -11.640625 6.75 -11.640625 C 6.988281 -11.191406 7.132812 -10.664062 7.1875 -10.0625 C 8.28125 -11.269531 9.242188 -11.875 10.078125 -11.875 C 11.171875 -11.875 11.769531 -10.953125 11.875 -9.109375 C 11.84375 -9.078125 11.796875 -9.019531 11.734375 -8.9375 C 11.679688 -8.863281 11.554688 -8.726562 11.359375 -8.53125 C 11.171875 -8.332031 10.96875 -8.148438 10.75 -7.984375 C 10.144531 -7.578125 9.503906 -7.335938 8.828125 -7.265625 C 8.804688 -7.265625 8.679688 -7.460938 8.453125 -7.859375 C 8.234375 -8.253906 8.046875 -8.453125 7.890625 -8.453125 C 7.742188 -8.453125 7.460938 -8.289062 7.046875 -7.96875 C 6.992188 -7.644531 6.890625 -7.097656 6.734375 -6.328125 C 6.585938 -5.554688 6.46875 -4.921875 6.375 -4.421875 C 6.113281 -3.097656 5.984375 -1.988281 5.984375 -1.09375 L 6 -0.296875 C 5.21875 0.00390625 3.65625 0.15625 1.3125 0.15625 Z M 1.3125 0.15625 "/></g></g></g><g fill="#004aad" fill-opacity="1"><g transform="translate(213.612254, 278.529649)"><g><path d="M 1.3125 -3.0625 L 1.65625 -8.65625 C 1.65625 -9.144531 1.585938 -9.523438 1.453125 -9.796875 C 1.328125 -10.078125 1.054688 -10.46875 0.640625 -10.96875 L 0.75 -11.375 C 2.125 -11.6875 3.265625 -11.84375 4.171875 -11.84375 C 5.085938 -11.84375 5.726562 -11.632812 6.09375 -11.21875 C 6.46875 -10.800781 6.65625 -10.207031 6.65625 -9.4375 C 6.65625 -8.664062 6.515625 -7.535156 6.234375 -6.046875 C 5.953125 -4.566406 5.8125 -3.585938 5.8125 -3.109375 C 5.8125 -2.640625 5.945312 -2.40625 6.21875 -2.40625 C 6.644531 -2.40625 7.203125 -2.8125 7.890625 -3.625 C 8.578125 -4.445312 9.03125 -5.25 9.25 -6.03125 L 7.265625 -7.9375 C 7.335938 -8.6875 7.5 -9.382812 7.75 -10.03125 C 8 -10.6875 8.222656 -11.148438 8.421875 -11.421875 L 8.734375 -11.84375 C 10.898438 -11.84375 11.984375 -10.953125 11.984375 -9.171875 C 11.984375 -8.003906 11.628906 -6.691406 10.921875 -5.234375 C 10.210938 -3.785156 9.222656 -2.492188 7.953125 -1.359375 C 6.691406 -0.234375 5.378906 0.328125 4.015625 0.328125 C 2.210938 0.328125 1.3125 -0.800781 1.3125 -3.0625 Z M 1.3125 -3.0625 "/></g></g></g><g fill="#004aad" fill-opacity="1"><g transform="translate(225.061163, 278.529649)"><g><path d="M 7.21875 -10.0625 C 7.21875 -9.269531 6.992188 -8.046875 6.546875 -6.390625 C 6.097656 -4.742188 5.875 -3.664062 5.875 -3.15625 C 5.875 -2.65625 5.972656 -2.40625 6.171875 -2.40625 C 6.367188 -2.40625 6.722656 -2.5 7.234375 -2.6875 L 7.484375 -2.78125 L 7.96875 -1.453125 C 7.351562 -0.984375 6.59375 -0.566406 5.6875 -0.203125 C 4.789062 0.148438 3.972656 0.328125 3.234375 0.328125 C 2.503906 0.328125 1.929688 0.125 1.515625 -0.28125 C 1.097656 -0.695312 0.890625 -1.296875 0.890625 -2.078125 C 0.890625 -2.859375 1.109375 -4.046875 1.546875 -5.640625 C 1.984375 -7.242188 2.203125 -8.257812 2.203125 -8.6875 C 2.203125 -9.34375 1.96875 -9.96875 1.5 -10.5625 L 1.28125 -10.859375 L 1.375 -11.3125 C 2.300781 -11.601562 4.101562 -11.75 6.78125 -11.75 C 7.070312 -11.425781 7.21875 -10.863281 7.21875 -10.0625 Z M 5.21875 -13.828125 C 4.40625 -13.828125 3.769531 -14.039062 3.3125 -14.46875 C 2.851562 -14.90625 2.625 -15.457031 2.625 -16.125 C 2.625 -16.800781 2.90625 -17.363281 3.46875 -17.8125 C 4.03125 -18.269531 4.710938 -18.5 5.515625 -18.5 C 6.328125 -18.5 6.957031 -18.3125 7.40625 -17.9375 C 7.851562 -17.5625 8.078125 -17.035156 8.078125 -16.359375 C 8.078125 -15.679688 7.800781 -15.085938 7.25 -14.578125 C 6.707031 -14.078125 6.03125 -13.828125 5.21875 -13.828125 Z M 5.21875 -13.828125 "/></g></g></g><g fill="#004aad" fill-opacity="1"><g transform="translate(233.104894, 278.529649)"><g><path d="M 7.5625 -10.078125 C 7.007812 -10.078125 6.535156 -9.582031 6.140625 -8.59375 C 5.742188 -7.613281 5.546875 -6.625 5.546875 -5.625 C 5.546875 -3.425781 6.179688 -2.328125 7.453125 -2.328125 C 8.253906 -2.328125 9.164062 -2.710938 10.1875 -3.484375 L 11.046875 -2.3125 C 10.296875 -1.488281 9.394531 -0.84375 8.34375 -0.375 C 7.300781 0.09375 6.265625 0.328125 5.234375 0.328125 C 3.835938 0.328125 2.703125 -0.09375 1.828125 -0.9375 C 0.960938 -1.789062 0.53125 -3.078125 0.53125 -4.796875 C 0.53125 -6.867188 1.171875 -8.566406 2.453125 -9.890625 C 3.734375 -11.210938 5.410156 -11.875 7.484375 -11.875 C 8.816406 -11.875 9.867188 -11.601562 10.640625 -11.0625 C 11.410156 -10.519531 11.796875 -9.832031 11.796875 -9 C 11.796875 -8.164062 11.546875 -7.445312 11.046875 -6.84375 C 10.453125 -6.84375 9.8125 -6.953125 9.125 -7.171875 C 8.4375 -7.390625 7.890625 -7.671875 7.484375 -8.015625 L 7.890625 -10.03125 C 7.773438 -10.0625 7.664062 -10.078125 7.5625 -10.078125 Z M 7.5625 -10.078125 "/></g></g></g><g fill="#004aad" fill-opacity="1"><g transform="translate(244.473363, 278.529649)"><g><path d="M 0.53125 -4.859375 C 0.53125 -7.066406 1.203125 -8.785156 2.546875 -10.015625 C 3.898438 -11.253906 5.570312 -11.875 7.5625 -11.875 C 8.9375 -11.875 10.039062 -11.570312 10.875 -10.96875 C 11.707031 -10.375 12.125 -9.578125 12.125 -8.578125 C 12.125 -7.847656 11.898438 -7.195312 11.453125 -6.625 C 11.003906 -6.050781 10.457031 -5.613281 9.8125 -5.3125 C 8.457031 -4.695312 7.28125 -4.328125 6.28125 -4.203125 L 5.609375 -4.125 C 5.804688 -2.945312 6.394531 -2.359375 7.375 -2.359375 C 7.800781 -2.359375 8.273438 -2.453125 8.796875 -2.640625 C 9.316406 -2.828125 9.726562 -3.019531 10.03125 -3.21875 L 10.484375 -3.484375 L 11.34375 -2.328125 C 11.34375 -2.328125 11.242188 -2.226562 11.046875 -2.03125 C 10.941406 -1.925781 10.6875 -1.71875 10.28125 -1.40625 C 9.875 -1.09375 9.453125 -0.816406 9.015625 -0.578125 C 8.578125 -0.347656 8.019531 -0.140625 7.34375 0.046875 C 6.664062 0.234375 5.988281 0.328125 5.3125 0.328125 C 3.789062 0.328125 2.613281 -0.113281 1.78125 -1 C 0.945312 -1.882812 0.53125 -3.171875 0.53125 -4.859375 Z M 5.5 -5.90625 C 6.019531 -5.96875 6.535156 -6.390625 7.046875 -7.171875 C 7.566406 -7.953125 7.828125 -8.601562 7.828125 -9.125 C 7.828125 -9.65625 7.675781 -9.921875 7.375 -9.921875 C 6.925781 -9.921875 6.515625 -9.570312 6.140625 -8.875 C 5.765625 -8.175781 5.550781 -7.1875 5.5 -5.90625 Z M 5.5 -5.90625 "/></g></g></g><g fill="#004aad" fill-opacity="1"><g transform="translate(256.163582, 278.529649)"><g><path d="M 9.859375 -3.625 C 9.859375 -2.507812 9.34375 -1.570312 8.3125 -0.8125 C 7.289062 -0.0507812 6.09375 0.328125 4.71875 0.328125 C 3.34375 0.328125 2.210938 0.09375 1.328125 -0.375 C 0.441406 -0.84375 0 -1.285156 0 -1.703125 C 0 -2.117188 0.269531 -2.65625 0.8125 -3.3125 C 1.363281 -3.96875 1.925781 -4.347656 2.5 -4.453125 C 3.320312 -4.003906 4.0625 -3.007812 4.71875 -1.46875 C 5.238281 -1.46875 5.5 -1.640625 5.5 -1.984375 C 5.5 -2.234375 5.425781 -2.460938 5.28125 -2.671875 C 5.132812 -2.890625 5.023438 -3.0625 4.953125 -3.1875 C 4.890625 -3.3125 4.765625 -3.484375 4.578125 -3.703125 C 4.398438 -3.929688 4.269531 -4.097656 4.1875 -4.203125 C 3.738281 -4.742188 3.332031 -5.238281 2.96875 -5.6875 C 2.113281 -6.757812 1.6875 -7.703125 1.6875 -8.515625 C 1.6875 -9.328125 1.945312 -9.992188 2.46875 -10.515625 C 3.363281 -11.421875 4.675781 -11.875 6.40625 -11.875 C 7.5 -11.875 8.363281 -11.664062 9 -11.25 C 9.644531 -10.832031 9.96875 -10.207031 9.96875 -9.375 C 9.96875 -8.539062 9.476562 -7.585938 8.5 -6.515625 C 9.40625 -5.460938 9.859375 -4.5 9.859375 -3.625 Z M 8.0625 -8.53125 C 8.28125 -8.863281 8.390625 -9.164062 8.390625 -9.4375 C 8.390625 -9.707031 8.269531 -9.910156 8.03125 -10.046875 C 7.800781 -10.191406 7.523438 -10.265625 7.203125 -10.265625 C 6.890625 -10.265625 6.644531 -10.1875 6.46875 -10.03125 C 6.300781 -9.882812 6.21875 -9.6875 6.21875 -9.4375 C 6.21875 -9.1875 6.601562 -8.632812 7.375 -7.78125 C 7.625 -7.957031 7.851562 -8.207031 8.0625 -8.53125 Z M 8.0625 -8.53125 "/></g></g></g></svg>