<svg xmlns="http://www.w3.org/2000/svg" xmlns:xlink="http://www.w3.org/1999/xlink" width="500" zoomAndPan="magnify" viewBox="0 0 375 374.999991" height="500" preserveAspectRatio="xMidYMid meet" version="1.0"><defs><clipPath id="5eeabe7909"><path d="M 0 0 L 372.75 0 L 372.75 372.75 L 0 372.75 Z M 0 0 " clip-rule="nonzero"/></clipPath><clipPath id="987c512c5c"><path d="M 53.066406 56.386719 L 321.566406 56.386719 L 321.566406 300.136719 L 53.066406 300.136719 Z M 53.066406 56.386719 " clip-rule="nonzero"/></clipPath><clipPath id="f721c1098d"><path d="M 73 235 L 293.914062 235 L 293.914062 295.527344 L 73 295.527344 Z M 73 235 " clip-rule="nonzero"/></clipPath><clipPath id="875d01f2b2"><path d="M 132.070312 59.289062 L 234.746094 59.289062 L 234.746094 225.953125 L 132.070312 225.953125 Z M 132.070312 59.289062 " clip-rule="nonzero"/></clipPath></defs><g clip-path="url(#5eeabe7909)"><path fill="#114186" d="M 372.738281 186.367188 C 372.738281 189.417969 372.664062 192.46875 372.515625 195.515625 C 372.363281 198.558594 372.140625 201.601562 371.839844 204.636719 C 371.542969 207.671875 371.167969 210.699219 370.722656 213.714844 C 370.273438 216.730469 369.753906 219.738281 369.15625 222.726562 C 368.5625 225.71875 367.894531 228.695312 367.152344 231.652344 C 366.410156 234.613281 365.597656 237.550781 364.714844 240.46875 C 363.828125 243.386719 362.871094 246.28125 361.84375 249.15625 C 360.816406 252.027344 359.71875 254.871094 358.550781 257.691406 C 357.382812 260.507812 356.148438 263.296875 354.84375 266.050781 C 353.539062 268.808594 352.167969 271.53125 350.730469 274.222656 C 349.292969 276.914062 347.792969 279.566406 346.222656 282.183594 C 344.65625 284.796875 343.023438 287.375 341.328125 289.910156 C 339.636719 292.445312 337.878906 294.9375 336.0625 297.390625 C 334.246094 299.839844 332.371094 302.242188 330.433594 304.601562 C 328.5 306.957031 326.507812 309.265625 324.460938 311.527344 C 322.410156 313.785156 320.308594 315.996094 318.152344 318.152344 C 315.996094 320.308594 313.785156 322.410156 311.527344 324.460938 C 309.265625 326.507812 306.957031 328.5 304.601562 330.433594 C 302.242188 332.371094 299.839844 334.246094 297.390625 336.0625 C 294.9375 337.878906 292.445312 339.636719 289.910156 341.328125 C 287.375 343.023438 284.796875 344.65625 282.183594 346.222656 C 279.566406 347.792969 276.914062 349.292969 274.222656 350.730469 C 271.53125 352.167969 268.808594 353.539062 266.050781 354.84375 C 263.292969 356.148438 260.507812 357.382812 257.6875 358.550781 C 254.871094 359.71875 252.027344 360.816406 249.15625 361.84375 C 246.28125 362.871094 243.386719 363.828125 240.46875 364.714844 C 237.550781 365.597656 234.613281 366.410156 231.652344 367.152344 C 228.695312 367.894531 225.71875 368.5625 222.726562 369.15625 C 219.738281 369.753906 216.730469 370.273438 213.714844 370.722656 C 210.699219 371.167969 207.671875 371.542969 204.636719 371.839844 C 201.601562 372.140625 198.558594 372.363281 195.515625 372.515625 C 192.46875 372.664062 189.417969 372.738281 186.367188 372.738281 C 183.320312 372.738281 180.269531 372.664062 177.222656 372.515625 C 174.179688 372.363281 171.136719 372.140625 168.101562 371.839844 C 165.066406 371.542969 162.039062 371.167969 159.023438 370.722656 C 156.007812 370.273438 153 369.753906 150.011719 369.15625 C 147.019531 368.5625 144.042969 367.894531 141.085938 367.152344 C 138.125 366.410156 135.1875 365.597656 132.269531 364.714844 C 129.351562 363.828125 126.453125 362.871094 123.582031 361.84375 C 120.710938 360.816406 117.867188 359.71875 115.046875 358.550781 C 112.230469 357.382812 109.441406 356.148438 106.6875 354.84375 C 103.929688 353.539062 101.207031 352.167969 98.515625 350.730469 C 95.824219 349.292969 93.171875 347.792969 90.554688 346.222656 C 87.941406 344.65625 85.363281 343.023438 82.828125 341.328125 C 80.292969 339.636719 77.800781 337.878906 75.347656 336.0625 C 72.898438 334.246094 70.496094 332.371094 68.136719 330.433594 C 65.78125 328.5 63.472656 326.507812 61.210938 324.460938 C 58.953125 322.410156 56.742188 320.308594 54.585938 318.152344 C 52.429688 315.996094 50.328125 313.785156 48.277344 311.527344 C 46.230469 309.265625 44.238281 306.957031 42.304688 304.601562 C 40.367188 302.242188 38.492188 299.839844 36.675781 297.390625 C 34.859375 294.9375 33.101562 292.445312 31.410156 289.910156 C 29.714844 287.375 28.082031 284.796875 26.515625 282.183594 C 24.945312 279.566406 23.445312 276.914062 22.007812 274.222656 C 20.570312 271.53125 19.199219 268.808594 17.894531 266.050781 C 16.589844 263.292969 15.355469 260.507812 14.1875 257.6875 C 13.019531 254.871094 11.921875 252.027344 10.894531 249.15625 C 9.867188 246.28125 8.910156 243.386719 8.023438 240.46875 C 7.140625 237.550781 6.328125 234.613281 5.585938 231.652344 C 4.84375 228.695312 4.175781 225.71875 3.582031 222.726562 C 2.984375 219.738281 2.464844 216.730469 2.015625 213.714844 C 1.570312 210.699219 1.195312 207.671875 0.898438 204.636719 C 0.597656 201.601562 0.375 198.558594 0.222656 195.515625 C 0.0742188 192.46875 0 189.417969 0 186.367188 C 0 183.320312 0.0742188 180.269531 0.222656 177.222656 C 0.375 174.179688 0.597656 171.136719 0.898438 168.101562 C 1.195312 165.066406 1.570312 162.039062 2.015625 159.023438 C 2.464844 156.007812 2.984375 153 3.582031 150.011719 C 4.175781 147.019531 4.84375 144.042969 5.585938 141.085938 C 6.328125 138.125 7.140625 135.1875 8.023438 132.269531 C 8.910156 129.351562 9.867188 126.453125 10.894531 123.582031 C 11.921875 120.710938 13.019531 117.867188 14.1875 115.046875 C 15.355469 112.230469 16.589844 109.441406 17.894531 106.6875 C 19.199219 103.929688 20.570312 101.207031 22.007812 98.515625 C 23.445312 95.824219 24.945312 93.171875 26.515625 90.554688 C 28.082031 87.941406 29.714844 85.363281 31.410156 82.828125 C 33.101562 80.292969 34.859375 77.800781 36.675781 75.347656 C 38.492188 72.898438 40.367188 70.496094 42.304688 68.136719 C 44.238281 65.78125 46.230469 63.472656 48.277344 61.210938 C 50.328125 58.953125 52.429688 56.742188 54.585938 54.585938 C 56.742188 52.429688 58.953125 50.328125 61.210938 48.277344 C 63.472656 46.230469 65.78125 44.238281 68.136719 42.304688 C 70.496094 40.367188 72.898438 38.492188 75.347656 36.675781 C 77.800781 34.859375 80.292969 33.101562 82.828125 31.410156 C 85.363281 29.714844 87.941406 28.082031 90.554688 26.515625 C 93.171875 24.945312 95.824219 23.445312 98.515625 22.007812 C 101.207031 20.570312 103.929688 19.199219 106.6875 17.894531 C 109.441406 16.589844 112.230469 15.355469 115.046875 14.1875 C 117.867188 13.019531 120.710938 11.921875 123.582031 10.894531 C 126.453125 9.867188 129.351562 8.910156 132.269531 8.023438 C 135.1875 7.140625 138.125 6.328125 141.085938 5.585938 C 144.042969 4.84375 147.019531 4.175781 150.011719 3.582031 C 153 2.984375 156.007812 2.464844 159.023438 2.015625 C 162.039062 1.570312 165.066406 1.195312 168.101562 0.898438 C 171.136719 0.597656 174.179688 0.375 177.222656 0.222656 C 180.269531 0.0742188 183.320312 0 186.367188 0 C 189.417969 0 192.46875 0.0742188 195.515625 0.222656 C 198.558594 0.375 201.601562 0.597656 204.636719 0.898438 C 207.671875 1.195312 210.699219 1.570312 213.714844 2.015625 C 216.730469 2.464844 219.738281 2.984375 222.726562 3.582031 C 225.71875 4.175781 228.695312 4.84375 231.652344 5.585938 C 234.613281 6.328125 237.550781 7.140625 240.46875 8.023438 C 243.386719 8.910156 246.28125 9.867188 249.15625 10.894531 C 252.027344 11.921875 254.871094 13.019531 257.691406 14.1875 C 260.507812 15.355469 263.296875 16.589844 266.050781 17.894531 C 268.808594 19.199219 271.53125 20.570312 274.222656 22.007812 C 276.914062 23.445312 279.566406 24.945312 282.183594 26.515625 C 284.796875 28.082031 287.375 29.714844 289.910156 31.410156 C 292.445312 33.101562 294.9375 34.859375 297.390625 36.675781 C 299.839844 38.492188 302.242188 40.367188 304.601562 42.304688 C 306.957031 44.238281 309.265625 46.230469 311.527344 48.277344 C 313.785156 50.328125 315.996094 52.429688 318.152344 54.585938 C 320.308594 56.742188 322.410156 58.953125 324.460938 61.210938 C 326.507812 63.472656 328.5 65.78125 330.433594 68.136719 C 332.371094 70.496094 334.246094 72.898438 336.0625 75.347656 C 337.878906 77.800781 339.636719 80.292969 341.328125 82.828125 C 343.023438 85.363281 344.65625 87.941406 346.222656 90.554688 C 347.792969 93.171875 349.292969 95.824219 350.730469 98.515625 C 352.167969 101.207031 353.539062 103.929688 354.84375 106.6875 C 356.148438 109.441406 357.382812 112.230469 358.550781 115.046875 C 359.71875 117.867188 360.816406 120.710938 361.84375 123.582031 C 362.871094 126.453125 363.828125 129.351562 364.714844 132.269531 C 365.597656 135.1875 366.410156 138.125 367.152344 141.085938 C 367.894531 144.042969 368.5625 147.019531 369.15625 150.011719 C 369.753906 153 370.273438 156.007812 370.722656 159.023438 C 371.167969 162.039062 371.542969 165.066406 371.839844 168.101562 C 372.140625 171.136719 372.363281 174.179688 372.515625 177.222656 C 372.664062 180.269531 372.738281 183.320312 372.738281 186.367188 Z M 372.738281 186.367188 " fill-opacity="1" fill-rule="nonzero"/></g><g clip-path="url(#987c512c5c)"><rect x="-37.5" width="450" fill="#114186" y="-37.499999" height="449.999989" fill-opacity="1"/><rect x="-37.5" width="450" fill="#114186" y="-37.499999" height="449.999989" fill-opacity="1"/></g><g clip-path="url(#f721c1098d)"><path fill="#ff914d" d="M 175.082031 235.15625 L 182.414062 235.15625 L 182.414062 242.492188 L 175.082031 242.492188 Z M 73.289062 296.039062 C 145.570312 281.789062 221.226562 281.789062 293.511719 296.039062 C 222.277344 268.984375 144.519531 268.984375 73.289062 296.039062 Z M 184.378906 235.15625 L 191.714844 235.15625 L 191.714844 242.492188 L 184.378906 242.492188 Z M 191.714844 244.457031 L 191.714844 251.792969 L 184.378906 251.792969 L 184.378906 244.457031 Z M 182.414062 251.792969 L 175.082031 251.792969 L 175.082031 244.457031 L 182.414062 244.457031 Z M 182.414062 251.792969 " fill-opacity="1" fill-rule="evenodd"/></g><path fill="#ff914d" d="M 183.15625 206.734375 L 109.113281 128.519531 L 99.816406 149.890625 L 63.289062 139.570312 L 73.113281 189.011719 L 55.566406 195.082031 L 108.835938 239.582031 C 118.660156 246.386719 119.746094 258.28125 112.199219 275.339844 C 124.519531 271.757812 136.273438 269.015625 147.433594 267.160156 L 147.433594 232.914062 L 183.121094 206.808594 Z M 183.15625 206.734375 " fill-opacity="1" fill-rule="evenodd"/><path fill="#ffd200" d="M 209.117188 225.722656 L 219.335938 233.191406 L 219.335938 267.441406 C 230.492188 269.300781 242.242188 272.035156 254.5625 275.617188 C 246.980469 258.597656 248.101562 246.664062 257.933594 239.859375 L 311.195312 195.367188 L 293.648438 189.296875 L 303.480469 139.859375 L 266.945312 150.203125 L 257.648438 128.839844 L 219.890625 168.28125 L 212.457031 182.175781 L 209.082031 225.648438 Z M 209.117188 225.722656 " fill-opacity="1" fill-rule="evenodd"/><g clip-path="url(#875d01f2b2)"><path fill="#ffbd59" d="M 234.527344 90.628906 L 209.894531 108.695312 L 183.613281 59.253906 L 157.332031 108.695312 L 132.695312 90.628906 L 147.46875 169.046875 L 183.121094 206.699219 L 209.050781 225.6875 C 217.507812 180.664062 225.996094 135.644531 234.453125 90.585938 Z M 234.527344 90.628906 " fill-opacity="1" fill-rule="evenodd"/></g><path fill="#ffd200" d="M 209.117188 225.722656 L 229.335938 158.492188 L 219.925781 168.3125 Z M 209.117188 225.722656 " fill-opacity="0.231" fill-rule="evenodd"/><path fill="#ffd200" d="M 183.15625 206.734375 L 144.9375 155.363281 L 147.503906 169.046875 Z M 183.15625 206.734375 " fill-opacity="0.231" fill-rule="evenodd"/></svg>